<svg xmlns="http://www.w3.org/2000/svg"><symbol id="icon-arrow-left"><path fill="none" d="M-1-1h25v22H-1z"/><g><path stroke-width="2" stroke-miterlimit="10" stroke="#000" fill="none" d="M10.692 19l-9-9 9-9M22.623 10H1.692"/></g></symbol><symbol id="icon-arrow-right" viewBox="0 0 32 32"><path clip-rule="evenodd" d="M32 16.009c0-.267-.11-.522-.293-.714l-9.899-9.999a.993.993 0 0 0-1.414 0 1.016 1.016 0 0 0 0 1.428l8.193 8.275H1c-.552 0-1 .452-1 1.01s.448 1.01 1 1.01h27.586l-8.192 8.275a1.017 1.017 0 0 0 0 1.428.994.994 0 0 0 1.414 0l9.899-9.999c.187-.189.29-.449.293-.714z" fill="currentColor" fill-rule="evenodd"/></symbol><symbol id="icon-behance" viewBox="0 0 11878 11878"><path fill="none" d="M0 0h11878v11878H0z"/><g fill="currentColor"><path d="M5132 7733c164-34 307-98 427-190 107-81 197-180 269-298 112-178 168-379 168-604 0-217-49-402-147-555-99-152-244-263-438-334 127-64 224-136 289-215 117-140 175-326 175-558 0-224-58-416-173-577-193-262-520-397-981-403H2891v3785h1706c192 0 371-17 535-51zM3646 4656h824c181 0 330 20 447 59 136 57 203 173 203 349 0 160-51 270-154 333-102 62-235 94-400 94h-920v-835zm0 2471V6117h932c163 2 288 23 378 65 161 73 241 208 241 405 0 233-83 391-249 473-91 44-219 67-383 67h-919zM6637 7535c285 229 614 344 986 344 451 0 803-136 1053-408 162-172 252-340 272-506h-748c-43 82-93 146-150 192-105 86-240 129-407 129-157 0-291-35-403-106-184-113-282-309-293-590h2039c3-242-5-427-24-556-34-219-109-412-223-578-127-189-289-327-484-415-195-87-415-131-659-131-410 0-743 130-1000 389-257 258-386 630-386 1115 0 517 142 891 427 1121zm523-1861c104-107 249-160 437-160 173 0 317 50 434 151 117 100 182 248 195 442H6965c27-182 92-327 195-433zM8371 4216H6726v382h1645z"/></g></symbol><symbol id="icon-blogger" viewBox="0 0 11878 11878"><path fill="none" d="M0 0h11878v11878H0z"/><path fill="currentColor" d="M7837 5419h-343c-115 0-208-93-208-208v-91c0-708-574-1283-1282-1283h-888c-709 0-1283 575-1283 1283v1638c0 708 574 1282 1283 1282h1646c708 0 1283-574 1283-1282V5627c0-115-93-208-208-208zm-2665-507h767c139 0 251 113 251 251 0 139-112 252-251 252h-767c-139 0-251-113-251-252 0-138 112-251 251-251zm1534 2036H5172c-139 0-251-112-251-251s112-251 251-251h1534c139 0 251 112 251 251s-112 251-251 251z"/></symbol><symbol id="icon-checker" viewBox="0 0 24 24"><path clip-rule="evenodd" fill="none" stroke="currentColor" stroke-miterlimit="10" stroke-width="2" d="M20 6L9 17l-5-5"/></symbol><symbol id="icon-close-circle" viewBox="0 0 256 256"><path d="M183.191 174.141a6.398 6.398 0 0 1 0 9.05 6.38 6.38 0 0 1-4.525 1.875 6.375 6.375 0 0 1-4.525-1.875l-46.142-46.142-46.143 46.141a6.378 6.378 0 0 1-4.525 1.875 6.375 6.375 0 0 1-4.525-1.875 6.398 6.398 0 0 1 0-9.05l46.143-46.143-46.143-46.141a6.398 6.398 0 0 1 0-9.05 6.398 6.398 0 0 1 9.05 0l46.142 46.142 46.142-46.142a6.399 6.399 0 0 1 9.051 0 6.398 6.398 0 0 1 0 9.05l-46.143 46.142 46.143 46.143zM256 128C256 57.42 198.58 0 128 0S0 57.42 0 128s57.42 128 128 128 128-57.42 128-128zm-12.8 0c0 63.521-51.679 115.2-115.2 115.2-63.522 0-115.2-51.679-115.2-115.2C12.8 64.478 64.478 12.8 128 12.8c63.521 0 115.2 51.678 115.2 115.2z"/></symbol><symbol id="icon-close-square" viewBox="0 0 32 32"><g fill="#121313"><path d="M30 0H2a2 2 0 0 0-2 2v28a2 2 0 0 0 2 2h28a2 2 0 0 0 2-2V2a2 2 0 0 0-2-2zm0 30H2V2h28v28z"/><path d="M9.271 22.707c.394.39 1.034.39 1.429 0l5.324-5.28 5.276 5.276a1.009 1.009 0 0 0 1.428 0 1.015 1.015 0 0 0 0-1.432l-5.268-5.269 5.238-5.195a.994.994 0 0 0 0-1.414 1.016 1.016 0 0 0-1.428 0l-5.231 5.188-5.309-5.31a1.009 1.009 0 0 0-1.428 0 1.015 1.015 0 0 0 0 1.432l5.301 5.302-5.331 5.287a.994.994 0 0 0-.001 1.415z"/></g></symbol><symbol id="icon-close" viewBox="0 0 256 256"><path d="M137.051 128l75.475-75.475c2.5-2.5 2.5-6.551 0-9.051s-6.551-2.5-9.051 0L128 118.949 52.525 43.475c-2.5-2.5-6.551-2.5-9.051 0s-2.5 6.551 0 9.051L118.949 128l-75.475 75.475a6.399 6.399 0 0 0 4.525 10.926 6.38 6.38 0 0 0 4.525-1.875L128 137.051l75.475 75.475c1.25 1.25 2.888 1.875 4.525 1.875s3.275-.625 4.525-1.875c2.5-2.5 2.5-6.551 0-9.051L137.051 128z"/></symbol><symbol id="icon-cloud-media" viewBox="0 0 8379 8379"><path class="fil0" fill="none" d="M0 0h8379v8379H0z"/><g fill="currentColor"><path d="M1610 4410c-2-13-12-22-24-22-11 0-21 9-23 22l-54 499 54 487c2 14 12 23 23 23 12 0 22-9 23-22l63-488-62-499zM2470 3950c-23 0-41 19-42 42l-44 917 44 593c1 23 19 42 42 42 22 0 40-19 42-42l49-593-49-917c-2-23-20-42-42-42zM2024 4269c-17 0-31 14-32 32l-49 608 49 588c1 18 15 32 32 32s31-14 33-32l56-588-56-608c-2-18-16-32-33-32zM2922 5544c28 0 50-23 51-52l43-582-43-1222c-1-28-23-51-51-51s-51 23-52 51l-37 1222 37 583c1 28 24 51 52 51zM3848 5546c38 0 70-31 70-70v1-1l30-566-30-1410c0-39-32-71-70-71s-70 32-71 71l-26 1410 26 566c1 39 33 70 71 70zM3381 5544c34 0 60-27 61-61v1l37-574-37-1230c-1-34-27-61-61-61-33 0-60 27-61 61l-32 1230 32 574c1 33 28 60 61 60zM6187 4182c-93 0-183 19-264 53-54-615-570-1098-1200-1098-154 0-304 30-437 81-51 20-65 41-65 81v2167c0 42 33 77 73 81 2 0 1881 1 1893 1 377 0 683-306 683-683s-306-683-683-683z"/></g></symbol><symbol id="icon-color-behance" viewBox="0 0 11878 11878"><path class="icon-color-behance" fill="#005cff" d="M0 0h11878v11878H0z"/><g fill="#fff"><path d="M5132 7733c164-34 307-98 427-190 107-81 197-180 269-298 112-178 168-379 168-604 0-217-49-402-147-555-99-152-244-263-438-334 127-64 224-136 289-215 117-140 175-326 175-558 0-224-58-416-173-577-193-262-520-397-981-403H2891v3785h1706c192 0 371-17 535-51zM3646 4656h824c181 0 330 20 447 59 136 57 203 173 203 349 0 160-51 270-154 333-102 62-235 94-400 94h-920v-835zm0 2471V6117h932c163 2 288 23 378 65 161 73 241 208 241 405 0 233-83 391-249 473-91 44-219 67-383 67h-919zM6637 7535c285 229 614 344 986 344 451 0 803-136 1053-408 162-172 252-340 272-506h-748c-43 82-93 146-150 192-105 86-240 129-407 129-157 0-291-35-403-106-184-113-282-309-293-590h2039c3-242-5-427-24-556-34-219-109-412-223-578-127-189-289-327-484-415-195-87-415-131-659-131-410 0-743 130-1000 389-257 258-386 630-386 1115 0 517 142 891 427 1121zm523-1861c104-107 249-160 437-160 173 0 317 50 434 151 117 100 182 248 195 442H6965c27-182 92-327 195-433zM8371 4216H6726v382h1645z"/></g></symbol><symbol id="icon-color-blogger" viewBox="0 0 11878 11878"><path class="icon-color-blogger" fill="#f59541" d="M0 0h11878v11878H0z"/><path fill="#fff" d="M7837 5419h-343c-115 0-208-93-208-208v-91c0-708-574-1283-1282-1283h-888c-709 0-1283 575-1283 1283v1638c0 708 574 1282 1283 1282h1646c708 0 1283-574 1283-1282V5627c0-115-93-208-208-208zm-2665-507h767c139 0 251 113 251 251 0 139-112 252-251 252h-767c-139 0-251-113-251-252 0-138 112-251 251-251zm1534 2036H5172c-139 0-251-112-251-251s112-251 251-251h1534c139 0 251 112 251 251s-112 251-251 251z"/></symbol><symbol id="icon-color-dribble" viewBox="0 0 10426 10426"><path class="icon-color-dribble" fill="#ea4c89" d="M0 0h10426v10426H0z"/><path fill="#fff" d="M5213 2375c-1567 0-2838 1271-2838 2838 0 1568 1271 2839 2838 2839 1568 0 2839-1271 2839-2839 0-1567-1271-2838-2839-2838zm0 493c538 0 1033 185 1430 491-285 367-679 658-1180 870-240-440-515-869-825-1286 184-47 377-75 575-75zm-1058 255c315 413 594 838 837 1273-575 170-1261 256-2054 262 164-671 615-1228 1217-1535zM2868 5213c0-20 3-40 4-60 910-2 1695-106 2353-313 55 112 108 225 158 339-799 249-1458 762-1971 1532-339-406-544-928-544-1498zm2345 2345c-542 0-1041-187-1439-497 466-731 1061-1206 1797-1426 220 572 381 1161 484 1764-262 102-545 159-842 159zm1302-396c-104-556-256-1100-454-1631 443-63 932-47 1466 46-104 659-480 1229-1012 1585zm-644-2098c-57-133-117-266-181-398 546-236 985-558 1312-965 319 377 520 856 549 1380-609-100-1169-105-1680-17z"/></symbol><symbol id="icon-color-dropbox" viewBox="0 0 9291 9291"><path class="icon-color-dropbox" fill="#007de4" d="M0 0h9291v9291H0z"/><path fill="#fff" d="M6235 4055l1091-873-1577-1028-1104 920-1104-920-1576 1028 1090 873-1090 873 1576 1029 1104-920 1104 920 1577-1029-1091-873zm-7 1788l-473 309-1107-918-1107 918-472-309v347l1579 947 1580-947v-347zM4645 3074l1590 981-1590 982-1590-982 1590-981z"/></symbol><symbol id="icon-color-evernote" viewBox="0 0 10426 10426"><path class="icon-color-evernote" fill="#2dbe5f" d="M0 0h10426v10426H0z"/><path fill="#fff" d="M3774 4012h404c23 0 41-18 42-41 0-1-5-346-5-443v-1c0-79 16-147 45-205l14-26c-2 0-3 1-5 2l-784 778c-1 1-2 3-3 4 17-8 39-19 42-20 68-31 151-48 250-48zm3140-84c-32-172-134-256-227-290-99-36-301-73-554-103-204-24-444-22-589-17-17-119-101-228-194-266-249-100-634-76-732-48-79 22-166 67-214 136-32 46-53 106-53 188 0 47 1 158 2 256s2 186 2 187c0 87-71 158-158 159h-404c-86 0-152 14-202 37s-86 53-113 90c-54 72-63 162-63 253 0 0 1 74 19 218 14 112 135 891 250 1128 45 92 74 130 162 171 195 83 640 176 849 203 208 26 339 82 417-81 0 0 15-41 37-100 67-205 77-386 77-518 0-13 19-14 19 0 0 93-17 422 231 510 98 35 301 66 508 90 187 21 323 95 323 574 0 292-62 332-382 332-260 0-359 7-359-199 0-167 165-150 288-150 54 0 14-40 14-143 0-102 64-162 4-163-423-12-671-1-671 528 0 480 183 569 783 569 470 0 636-16 830-618 39-119 132-482 188-1091 35-386-34-1549-88-1842zm-820 1285c-58-2-114 2-166 10 14-118 63-264 236-257 192 6 219 187 220 310-81-36-181-59-290-63z"/></symbol><symbol id="icon-color-facebook" viewBox="0 0 8379 8379"><path class="icon-color-facebook" fill="#3b5998" d="M0 0h8379v8379H0z"/><path fill="#fff" d="M5111 3490h-627v-412c0-154 102-190 174-190h443v-680l-610-3c-677 0-832 507-832 832v453h-392v701h392v1983h825V4191h556l71-701z"/></symbol><symbol id="icon-color-gplus" viewBox="0 0 11878 11878"><path class="icon-color-gplus" fill="#dd4c40" d="M0 0h11878v11878H0z"/><g fill="#fff"><path d="M4779 5538v802s776-1 1092-1c-172 519-437 802-1092 802-663 0-1180-538-1180-1202s517-1202 1180-1202c350 0 576 123 784 295 166-166 152-190 575-590-359-327-836-527-1359-527-1116 0-2020 906-2020 2024s904 2024 2020 2024c1667 0 2075-1455 1940-2425H4779zM8419 5578v-701h-500v701h-720v501h720v721h500v-721h700v-501z"/></g></symbol><symbol id="icon-color-instagram" viewBox="0 0 7630 7630"><path class="icon-color-instagram" fill="#2783d1" d="M0 0h7630v7630H0z"/><g fill="#fff"><path d="M5270 4596c0 377-306 683-683 683H3043c-377 0-684-306-684-683V3052c0-378 307-684 684-684h1544c377 0 683 306 683 684v1544zm-701-2565H3061c-569 0-1030 461-1030 1030v1508c0 569 461 1030 1030 1030h1508c569 0 1030-461 1030-1030V3061c0-569-461-1030-1030-1030z"/><path d="M3815 4424c-332 0-600-269-600-600 0-332 268-600 600-600 331 0 600 268 600 600 0 331-269 600-600 600zm0-1526c-512 0-926 414-926 926 0 511 414 926 926 926 511 0 926-415 926-926 0-512-415-926-926-926zM4772 2647c-119 0-216 97-216 216s97 215 216 215 215-96 215-215-96-216-215-216z"/></g></symbol><symbol id="icon-color-linkedin" viewBox="0 0 7630 7630"><path class="icon-color-linkedin" fill="#007bb5" d="M0 0h7630v7630H0z"/><g fill="#fff"><path d="M2084 5618h744V3214h-744zM2453 2899c243 0 440-199 440-444s-197-443-440-443c-244 0-441 198-441 443s197 444 441 444zM4018 4356c0-338 155-539 453-539 274 0 406 193 406 539v1262h740V4096c0-644-365-956-875-956-509 0-724 398-724 398v-324h-714v2404h714V4356z"/></g></symbol><symbol id="icon-color-messenger" viewBox="0 0 8379 8379"><path class="icon-color-messenger" fill="#0084ff" d="M0 0h8379v8379H0z"/><path fill="#fff" d="M2155 4038c0 597 296 1128 758 1475v723l693-383c1228 347 2618-484 2618-1815 0-1047-911-1895-2035-1895-1082 0-2034 817-2034 1895zm1820-530l531 555 997-555-1112 1187-518-556-1010 556 1112-1187z"/></symbol><symbol id="icon-color-paypal" viewBox="0 0 11878 11878"><path class="icon-color-paypal" fill="#013088" d="M0 0h11878v11878H0z"/><g fill="#fff"><path d="M7354 4054c-220-251-618-359-1126-359H4751c-104 0-193 76-209 179l-615 3899c-12 77 48 147 126 147h911l229-1453-7 46c16-103 104-178 208-178h433c851 0 1518-346 1712-1346 6-30 15-87 15-87 56-370 0-621-200-848z"/><path d="M7785 5092c-212 984-887 1505-1958 1505h-388l-290 1850h630c91 0 169-66 183-156l7-39 145-918 9-51c15-90 92-156 183-156h115c744 0 1327-303 1498-1177 68-351 35-645-134-858z"/></g></symbol><symbol id="icon-color-pinterest" viewBox="0 0 10426 10426"><path class="icon-color-pinterest" fill="#bd081c" d="M0 0h10426v10426H0z"/><path fill="#fff" d="M3632 5672c77 32 147 1 169-84 16-59 52-208 69-270 23-85 14-115-49-188-135-160-222-368-222-661 0-852 637-1614 1659-1614 905 0 1402 553 1402 1291 0 972-430 1792-1068 1792-353 0-616-292-532-649 102-427 298-888 298-1196 0-276-148-506-455-506-360 0-650 373-650 872 0 318 108 534 108 534s-369 1562-434 1836c-129 545-19 1213-10 1281 6 40 57 49 80 19 34-43 463-573 609-1103 41-150 237-926 237-926 117 223 459 420 823 420 1083 0 1818-988 1818-2310 0-999-846-1930-2133-1930-1601 0-2409 1148-2409 2105 0 580 220 1095 690 1287z"/></symbol><symbol id="icon-color-rss" viewBox="0 0 7630 7630"><path class="icon-color-rss" fill="orange" d="M0 0h7630v7630H0z"/><g fill="#fff"><path d="M2241 2014v539c572 2 1109 226 1513 631 405 405 629 943 631 1516h538c-3-1481-1202-2680-2682-2686zM2605 3973c-201 0-364 163-364 364 0 200 163 363 364 363 200 0 363-163 363-363 0-201-163-364-363-364z"/><path d="M2241 2930v538c676 7 1225 556 1232 1232h538c-7-975-795-1763-1770-1770z"/></g></symbol><symbol id="icon-color-skype" viewBox="0 0 7630 7630"><path class="icon-color-skype" fill="#01aef2" d="M0 0h7630v7630H0z"/><path fill="#fff" d="M4672 4604c-75 106-187 189-332 248-144 59-316 89-512 89-235 0-432-41-585-121-110-59-201-138-270-236-69-99-104-197-104-291 0-59 23-110 68-152s102-63 171-63c56 0 104 16 144 49 38 32 70 78 96 138 29 66 60 121 94 164 32 43 78 78 137 105 59 28 139 42 237 42 136 0 247-29 330-85 82-54 121-120 121-201 0-64-21-114-63-153-45-41-104-73-174-95-75-23-176-48-301-73-170-36-314-78-429-127-117-49-211-117-281-202-70-87-105-196-105-324 0-121 37-231 111-326 73-94 179-168 317-217 136-50 297-75 480-75 146 0 275 17 382 50 108 33 199 77 270 132 72 56 126 115 159 177 34 62 51 124 51 183 0 58-22 111-67 156-44 46-101 69-168 69-60 0-108-14-140-43-31-27-63-68-98-128-41-76-91-137-147-179-55-42-147-62-273-62-117 0-213 23-284 69-68 44-101 94-101 154 0 37 10 68 33 94 23 28 56 52 97 73 43 21 88 39 132 51 45 12 121 31 226 54 133 28 254 60 362 94 109 34 203 76 280 126 78 50 140 115 184 192s67 173 67 284c0 133-39 254-115 360zm797-771c0-891-732-1613-1636-1613-95 0-189 8-280 24-146-91-319-144-504-144-525 0-949 418-949 936 0 172 47 333 130 473-22 104-33 213-33 324 0 891 732 1613 1636 1613 102 0 202-10 300-27 133 71 286 111 448 111 524 0 949-419 949-935 0-150-36-291-99-416 25-112 38-227 38-346z"/></symbol><symbol id="icon-color-snapchat" viewBox="0 0 10426 10426"><path class="icon-color-snapchat" fill="#fffc01" d="M0 0h10426v10426H0z"/><path fill="#fff" d="M5247 7758c-15 0-30-1-41-1-8 0-18 1-27 1-323 0-539-153-729-288-136-96-265-187-416-212-74-12-148-19-219-19-128 0-230 20-303 35-46 8-85 16-116 16-32 0-70-7-86-62-13-43-22-85-31-126-22-101-38-162-76-168-405-63-644-155-691-266-5-11-8-23-9-35-2-34 22-63 54-68 322-53 608-223 850-505 188-219 280-428 290-451l1-3c47-95 56-176 28-243-52-123-225-178-339-214-29-9-55-18-77-26-101-40-268-125-246-242 16-85 129-144 220-144 25 0 48 5 67 13 102 49 195 73 274 73 99 0 147-38 159-48-4-55-7-109-10-162-23-370-52-829 65-1093 352-789 1098-850 1318-850 37-1 73-1 110-1 220 0 968 61 1320 851 118 263 89 723 66 1093l-1 18c-4 50-7 97-9 144 11 10 55 44 143 48 76-3 163-28 259-73 30-13 63-16 85-16 34 0 68 6 97 18l1 1c82 29 135 86 136 147 1 57-41 141-248 223-21 8-48 17-76 26-115 36-287 91-339 214-29 67-19 148 27 243l2 3c14 34 362 828 1139 956 33 5 56 34 54 68 0 12-3 24-8 35-47 111-287 203-692 265-38 6-54 68-75 168-10 42-19 82-32 125-11 40-37 60-79 60h-6c-28 0-67-5-116-14-86-17-182-33-303-33-72 0-145 7-220 19-150 25-279 116-415 212-191 135-407 288-730 288z"/></symbol><symbol id="icon-color-tumblr" viewBox="0 0 7630 7630"><path class="icon-color-tumblr" fill="#36465d" d="M0 0h7630v7630H0z"/><path fill="#fff" d="M2998 4892c0 188 19 332 59 431 39 99 111 193 213 281 102 89 226 157 371 204 145 48 312 72 500 72 166 0 321-17 464-50 143-34 303-92 479-175v-649c-207 136-415 204-624 204-117 0-222-28-313-83-69-40-116-95-142-162-25-68-38-222-38-462V3444h981v-648h-981V1750h-585c-26 213-74 388-144 526-69 138-162 256-277 354s-254 173-415 226v588h452v1448z"/></symbol><symbol id="icon-color-twitter" viewBox="0 0 9291 9291"><path class="icon-color-twitter" fill="#1da1f3" d="M0 0h9291v9291H0z"/><path fill="#fff" d="M6852 3277c-162 72-336 120-520 142 188-112 331-289 399-501-178 106-373 180-576 220-165-176-400-286-660-286-500 0-906 405-906 906 0 70 8 140 24 206-753-38-1420-398-1867-946-78 134-122 289-122 455 0 314 160 592 403 754-144-5-285-43-411-113v11c0 439 312 805 727 888-77 21-156 32-239 32-58 0-115-6-170-16 115 359 449 621 846 628-311 243-701 388-1125 388-73 0-145-4-216-13 401 257 877 407 1388 407 1665 0 2576-1380 2576-2576 0-39-1-78-3-117 178-128 331-287 452-469z"/></symbol><symbol id="icon-color-vimeo" viewBox="0 0 11878 11878"><path class="icon-color-vimeo" fill="#00adef" d="M0 0h11878v11878H0z"/><path fill="#fff" d="M8193 3187c-882-29-1479 469-1792 1494 161-69 318-104 471-104 323 0 466 182 428 545-19 220-162 540-428 961-267 421-467 631-600 631-172 0-329-323-471-972-49-191-134-677-258-1459-114-725-419-1064-914-1016-210 19-524 210-943 571-305 277-615 553-929 829l300 386c285-200 452-300 499-300 219 0 423 343 613 1028 171 628 343 1255 514 1884 256 685 570 1027 941 1027 599 0 1330-562 2196-1687 836-1077 1269-1926 1297-2545 38-830-270-1254-924-1273z"/></symbol><symbol id="icon-color-whatsapp" viewBox="0 0 8379 8379"><path class="icon-color-whatsapp" fill="#25d366" d="M0 0h8379v8379H0z"/><g fill="#fff"><path d="M6460 4075c-30-1197-1016-2158-2229-2158-1199 0-2176 939-2229 2117-1 32-2 65-2 97 0 419 117 809 320 1143l-402 1188 1235-393c320 175 687 276 1078 276 1232 0 2230-991 2230-2214 0-19 0-38-1-56zM4231 5992c-381 0-735-113-1032-308l-720 229 233-691c-224-307-357-684-357-1091 0-61 3-121 10-181 92-942 894-1680 1866-1680 984 0 1794 757 1869 1716 4 48 6 96 6 145 0 1026-842 1861-1875 1861z"/><path d="M5253 4578c-55-27-324-159-374-177s-87-27-123 28c-37 54-142 176-173 211-33 37-64 41-119 14s-231-83-440-269c-162-143-273-321-304-375s-3-84 24-111c25-25 54-64 83-95 7-9 13-18 19-26 13-20 22-39 35-65 19-36 9-68-4-95-14-27-123-294-169-403-45-108-91-90-124-90-31 0-68-5-104-5-37 0-96 14-146 68s-191 186-191 453c0 63 11 125 28 185 55 191 174 349 195 376 27 35 378 601 934 820 556 216 556 144 656 134 101-8 324-130 369-258 46-126 46-235 32-258-13-21-50-35-104-62z"/></g></symbol><symbol id="icon-color-youtube-2" viewBox="0 0 7630 7630"><path class="icon-color-youtube-2" fill="red" d="M0 0h7630v7630H0z"/><g fill="#fff"><path d="M4035 3421c58 0 137-30 219-127v112h190V2387h-190v774c-23 29-74 76-111 76-41 0-51-28-51-68v-782h-189v852c0 101 31 182 132 182zM3192 3152c0 180 94 273 278 273 152 0 272-102 272-273v-499c0-160-119-274-272-274-167 0-278 110-278 274v499zm195-483c0-55 26-97 79-97 58 0 83 40 83 97v475c0 55-28 96-79 96-53 0-83-43-83-96v-475zM2740 3406h213v-560l249-821h-217l-137 552-147-552h-215l254 821z"/><g><path d="M4699 3638H2465c-240 0-434 195-434 435v1098c0 240 194 434 434 434h2234c240 0 434-194 434-434V4073c0-240-194-435-434-435zM2763 5280h-203V4155h-211v-191h624v191h-210v1125zm723 0h-181v-107c-33 39-68 69-103 90-98 56-231 55-231-143v-811h180v744c0 39 10 66 48 66 35 0 84-45 106-73v-737h181v971zm695-201c0 120-45 213-165 213-66 0-122-24-172-87v75h-182V3964h182v424c41-50 96-91 161-91 132 0 176 112 176 243v539zm667-262h-345v183c0 73 6 136 78 136 77 0 81-51 81-136v-67h186v73c0 187-81 300-271 300-172 0-260-125-260-300v-436c0-168 111-285 274-285 173 0 257 110 257 285v247z"/><path d="M4583 4455c-67 0-80 47-80 113v99h159v-99c0-65-14-113-79-113zM3881 4461c-12 6-25 16-37 29v605c15 16 29 27 43 34 29 15 72 16 92-10 11-13 16-36 16-67v-501c0-33-7-58-19-74-22-29-63-32-95-16z"/></g></g></symbol><symbol id="icon-color-youtube" viewBox="0 0 9291 9291"><path class="icon-color-youtube" fill="red" d="M0 0h9291v9291H0z"/><path fill="#fff" d="M6850 5434V3857s0-760-760-760H3200s-759 0-759 760v1577s0 760 759 760h2890s760 0 760-760zm-1349-787l-1443 849V3800l1443 847z"/></symbol><symbol id="icon-creditcard" viewBox="0 0 512.16 512.16"><path d="M273.067 337.147H409.6c5.12 0 8.533-3.413 8.533-8.533v-76.8c0-5.12-3.413-8.533-8.533-8.533H273.067c-5.12 0-8.533 3.413-8.533 8.533v76.8c-.001 5.119 3.413 8.533 8.533 8.533zm8.533-76.8h119.467v59.733H281.6v-59.733zM42.667 226.213h68.267c5.12 0 8.533-3.413 8.533-8.533s-3.413-8.533-8.533-8.533H42.667c-5.12 0-8.533 3.413-8.533 8.533s3.413 8.533 8.533 8.533zM145.067 226.213h68.267c5.12 0 8.533-3.413 8.533-8.533s-3.413-8.533-8.533-8.533h-68.267c-5.12 0-8.533 3.413-8.533 8.533s3.413 8.533 8.533 8.533zM42.667 260.347H153.6c5.12 0 8.533-3.413 8.533-8.533s-3.413-8.533-8.533-8.533H42.667c-5.12 0-8.533 3.413-8.533 8.533s3.413 8.533 8.533 8.533zM213.333 243.28h-25.6c-5.12 0-8.533 3.413-8.533 8.533s3.413 8.533 8.533 8.533h25.6c5.12 0 8.533-3.413 8.533-8.533s-3.413-8.533-8.533-8.533z"/><path d="M504.32 137.467c-5.973-7.68-13.653-11.947-23.04-12.8l-20.48-2.482V81.147c0-18.773-15.36-34.133-34.133-34.133H34.133C15.36 47.013 0 62.373 0 81.147v273.067c0 15.413 10.357 28.518 24.453 32.718-.43 17.262 12.631 32.248 30.161 33.842l394.24 44.373h3.413c17.067 0 32.427-12.8 34.133-29.013l25.6-273.92c.853-8.534-1.707-17.921-7.68-24.747zm-487.253-30.72h426.667v51.2H17.067v-51.2zM34.133 64.08h392.533c9.387 0 17.067 7.68 17.067 17.067v8.533H17.067v-8.533c0-9.387 7.68-17.067 17.066-17.067zM17.067 354.213v-179.2h426.667v179.2c0 9.387-7.68 17.067-17.067 17.067H34.134c-9.387 0-17.067-7.68-17.067-17.067zM494.933 158.8l-25.6 273.92c-.853 9.387-9.387 16.213-18.773 15.36L57.173 403.707c-8.533-.853-14.507-7.68-15.36-15.36h384.853c18.773 0 34.133-15.36 34.133-34.133V138.32l19.627 1.707c4.267 0 8.533 2.56 11.093 5.973 2.561 3.413 4.268 8.533 3.414 12.8z"/></symbol><symbol id="icon-deliverytruck" viewBox="0 -117 679.99892 679"><path d="M12.348 378.383h37.39c4.371 37.715 36.317 66.164 74.278 66.164 37.968 0 69.906-28.45 74.28-66.164h241.79c4.383 37.715 36.316 66.164 74.277 66.164 37.969 0 69.903-28.45 74.285-66.164h78.891c6.883 0 12.461-5.578 12.461-12.461V12.965C680 6.082 674.422.5 667.54.5H235.062c-6.875 0-12.458 5.582-12.458 12.465v69.914h-105.57a12.477 12.477 0 0 0-10.219 5.363l-68.171 97.582-26.668 37.39-9.723 13.837a12.449 12.449 0 0 0-2.25 7.101v121.399a12.473 12.473 0 0 0 12.344 12.832zm111.418 37.387c-27.528 0-49.852-22.32-49.852-49.848 0-27.535 22.324-49.856 49.852-49.856 27.535 0 49.855 22.32 49.855 49.856 0 27.633-22.219 50.133-49.855 50.473zm390.347 0c-27.531 0-49.855-22.32-49.855-49.848 0-27.535 22.324-49.856 49.855-49.856 27.54 0 49.856 22.32 49.856 49.856.004 27.633-22.219 50.133-49.856 50.473zM654.824 25.426V248.77H316.45c-6.883 0-12.465 5.578-12.465 12.46 0 6.883 5.582 12.465 12.465 12.465h338.375v79.762h-66.422c-4.382-37.71-36.32-66.156-74.289-66.156-37.96 0-69.898 28.445-74.277 66.156H247.527V82.133h89.98c6.884 0 12.466-5.582 12.466-12.465s-5.582-12.465-12.465-12.465h-89.98V25.426zM123.52 107.809h99.703v245.648h-24.926c-4.375-37.71-36.313-66.156-74.281-66.156-37.961 0-69.907 28.445-74.278 66.156h-24.93V248.141l3.739-5.36h152.055c6.882 0 12.46-5.574 12.46-12.457v-92.226c0-6.883-5.578-12.465-12.46-12.465h-69.797zm-30.16 43h74.777v67.296H45.87zm0 0"/></symbol><symbol id="icon-discount" viewBox="0 0 442.19987 442.19987"><path d="M419.398 174.5a20.88 20.88 0 0 1-3.296-12.102l1.597-29.699a39.918 39.918 0 0 0-21.898-37.898L369.5 81.5a19.717 19.717 0 0 1-8.8-8.8l-13.302-26.302A39.914 39.914 0 0 0 309.5 24.5l-29.7 1.602a19.98 19.98 0 0 1-12.1-3.301L243.101 6.6a39.964 39.964 0 0 0-44 0l-24.602 16.2a20.912 20.912 0 0 1-12.102 3.3L132.7 24.5a39.918 39.918 0 0 0-37.898 21.898L81.5 72.7a19.698 19.698 0 0 1-8.8 8.801L46.397 94.8A39.918 39.918 0 0 0 24.5 132.7l1.602 29.698A19.814 19.814 0 0 1 22.8 174.5L6.6 199.102a39.964 39.964 0 0 0 0 44l16.2 24.597a20.912 20.912 0 0 1 3.3 12.102L24.5 309.5a39.914 39.914 0 0 0 21.898 37.898L72.7 360.7A19.717 19.717 0 0 1 81.5 369.5l13.3 26.3a39.918 39.918 0 0 0 37.9 21.9l29.698-1.598c4.286-.23 8.528.93 12.102 3.296l24.602 16.204a39.979 39.979 0 0 0 44 0l24.597-16.204a20.88 20.88 0 0 1 12.102-3.296l29.699 1.597a39.914 39.914 0 0 0 37.898-21.898L360.7 369.5a19.736 19.736 0 0 1 8.801-8.8l26.3-13.302a39.914 39.914 0 0 0 21.9-37.898l-1.598-29.7a19.785 19.785 0 0 1 3.296-12.1l16.204-24.598a39.979 39.979 0 0 0 0-44zm-.5 57.602L402.7 256.699a39.888 39.888 0 0 0-6.5 24.2l1.602 29.703a20.211 20.211 0 0 1-11 19L360.5 342.898a39.87 39.87 0 0 0-17.7 17.704l-13.3 26.296a20.105 20.105 0 0 1-19 11l-29.7-1.597a40.546 40.546 0 0 0-24.198 6.5l-24.5 16.097a19.974 19.974 0 0 1-22 0L185.5 402.7a40.307 40.307 0 0 0-22.102-6.597 16.547 16.547 0 0 0-2.199.097l-29.699 1.602a20.207 20.207 0 0 1-19-11L99.2 360.5a39.861 39.861 0 0 0-17.7-17.7l-26.3-13.3a20.112 20.112 0 0 1-11-19l1.6-29.7a40.573 40.573 0 0 0-6.5-24.198l-16-24.5a19.974 19.974 0 0 1 0-22L39.5 185.5a39.888 39.888 0 0 0 6.5-24.2l-1.602-29.698a20.21 20.21 0 0 1 11-19L81.7 99.3a39.861 39.861 0 0 0 17.7-17.7l13.3-26.3a20.105 20.105 0 0 1 19-11l29.7 1.597a40.565 40.565 0 0 0 24.203-6.5l24.5-16.097a19.974 19.974 0 0 1 22 0L256.699 39.5a39.888 39.888 0 0 0 24.2 6.5l29.703-1.602a20.218 20.218 0 0 1 19 11L342.898 81.7a39.85 39.85 0 0 0 17.704 17.7l26.296 13.3a20.105 20.105 0 0 1 11 19l-1.597 29.7a40.565 40.565 0 0 0 6.5 24.203L419 210.199a20.005 20.005 0 0 1-.102 21.903zm0 0"/><path d="M182.2 216.5c18.945 0 34.3-15.355 34.3-34.3 0-18.942-15.355-34.302-34.3-34.302-18.942 0-34.302 15.36-34.302 34.301.032 18.93 15.372 34.27 34.301 34.301zm0-48.7c7.898 0 14.3 6.403 14.3 14.302 0 7.894-6.402 14.296-14.3 14.296-7.9 0-14.302-6.402-14.302-14.296 0-7.899 6.403-14.301 14.301-14.301zm0 0M260 225.7c-18.945 0-34.3 15.355-34.3 34.3 0 18.941 15.355 34.3 34.3 34.3 18.941 0 34.3-15.359 34.3-34.3-.03-18.93-15.37-34.27-34.3-34.3zm0 48.698c-7.898 0-14.3-6.402-14.3-14.296 0-7.899 6.402-14.301 14.3-14.301s14.3 6.402 14.3 14.3c0 7.895-6.402 14.297-14.3 14.297zm0 0M285.3 156.898a9.97 9.97 0 0 0-14.1 0l-111 111c-1.872 1.872-2.927 4.407-2.927 7.051s1.055 5.184 2.926 7.051a9.798 9.798 0 0 0 7.102 2.898c2.652-.007 5.199-1.05 7.097-2.898l111-111c3.825-3.938 3.778-10.215-.097-14.102zm0 0"/></symbol><symbol id="icon-dribble" viewBox="0 0 10426 10426"><path fill="none" d="M0 0h10426v10426H0z"/><path fill="currentColor" d="M5213 2375c-1567 0-2838 1271-2838 2838 0 1568 1271 2839 2838 2839 1568 0 2839-1271 2839-2839 0-1567-1271-2838-2839-2838zm0 493c538 0 1033 185 1430 491-285 367-679 658-1180 870-240-440-515-869-825-1286 184-47 377-75 575-75zm-1058 255c315 413 594 838 837 1273-575 170-1261 256-2054 262 164-671 615-1228 1217-1535zM2868 5213c0-20 3-40 4-60 910-2 1695-106 2353-313 55 112 108 225 158 339-799 249-1458 762-1971 1532-339-406-544-928-544-1498zm2345 2345c-542 0-1041-187-1439-497 466-731 1061-1206 1797-1426 220 572 381 1161 484 1764-262 102-545 159-842 159zm1302-396c-104-556-256-1100-454-1631 443-63 932-47 1466 46-104 659-480 1229-1012 1585zm-644-2098c-57-133-117-266-181-398 546-236 985-558 1312-965 319 377 520 856 549 1380-609-100-1169-105-1680-17z"/></symbol><symbol id="icon-dropbox" viewBox="0 0 9291 9291"><path fill="none" d="M0 0h9291v9291H0z"/><path fill="currentColor" d="M6235 4055l1091-873-1577-1028-1104 920-1104-920-1576 1028 1090 873-1090 873 1576 1029 1104-920 1104 920 1577-1029-1091-873zm-7 1788l-473 309-1107-918-1107 918-472-309v347l1579 947 1580-947v-347zM4645 3074l1590 981-1590 982-1590-982 1590-981z"/></symbol><symbol id="icon-evernote" viewBox="0 0 10426 10426"><path fill="none" d="M0 0h10426v10426H0z"/><path fill="currentColor" d="M3774 4012h404c23 0 41-18 42-41 0-1-5-346-5-443v-1c0-79 16-147 45-205l14-26c-2 0-3 1-5 2l-784 778c-1 1-2 3-3 4 17-8 39-19 42-20 68-31 151-48 250-48zm3140-84c-32-172-134-256-227-290-99-36-301-73-554-103-204-24-444-22-589-17-17-119-101-228-194-266-249-100-634-76-732-48-79 22-166 67-214 136-32 46-53 106-53 188 0 47 1 158 2 256s2 186 2 187c0 87-71 158-158 159h-404c-86 0-152 14-202 37s-86 53-113 90c-54 72-63 162-63 253 0 0 1 74 19 218 14 112 135 891 250 1128 45 92 74 130 162 171 195 83 640 176 849 203 208 26 339 82 417-81 0 0 15-41 37-100 67-205 77-386 77-518 0-13 19-14 19 0 0 93-17 422 231 510 98 35 301 66 508 90 187 21 323 95 323 574 0 292-62 332-382 332-260 0-359 7-359-199 0-167 165-150 288-150 54 0 14-40 14-143 0-102 64-162 4-163-423-12-671-1-671 528 0 480 183 569 783 569 470 0 636-16 830-618 39-119 132-482 188-1091 35-386-34-1549-88-1842zm-820 1285c-58-2-114 2-166 10 14-118 63-264 236-257 192 6 219 187 220 310-81-36-181-59-290-63z"/></symbol><symbol id="icon-facebook" viewBox="0 0 8379 8379"><path fill="none" d="M0 0h8379v8379H0z"/><path fill="currentColor" d="M5111 3490h-627v-412c0-154 102-190 174-190h443v-680l-610-3c-677 0-832 507-832 832v453h-392v701h392v1983h825V4191h556l71-701z"/></symbol><symbol id="icon-gplus" viewBox="0 0 11878 11878"><path fill="none" d="M0 0h11878v11878H0z"/><g fill="currentColor"><path d="M4779 5538v802s776-1 1092-1c-172 519-437 802-1092 802-663 0-1180-538-1180-1202s517-1202 1180-1202c350 0 576 123 784 295 166-166 152-190 575-590-359-327-836-527-1359-527-1116 0-2020 906-2020 2024s904 2024 2020 2024c1667 0 2075-1455 1940-2425H4779zM8419 5578v-701h-500v701h-720v501h720v721h500v-721h700v-501z"/></g></symbol><symbol id="icon-headphones" viewBox="0 0 420.96 420.96"><path d="M354.48 144c0-79.529-64.471-144-144-144s-144 64.471-144 144c-20.56 2.56-40 16-40 47.2v75.2c0 35.2 24.64 48 48 48h23.2a8 8 0 0 0 8-8V151.52a8 8 0 0 0-8-8h-15.2c0-70.692 57.308-128 128-128s128 57.308 128 128h-15.2a8 8 0 0 0-8 8v154.64a8 8 0 0 0 8 8h15.2c-2.24 54.96-28.64 67.84-81.36 70.16v-5.36c0-8.837-7.163-16-16-16H190.8c-8.837 0-16 7.163-16 16v26c0 8.837 7.163 16 16 16h50.48c8.837 0 16-7.163 16-16v-4.64c50.72-2.32 94.56-12.8 97.2-86.64 20.56-2.56 40-16 40-47.2v-75.2c0-31.36-19.36-44.72-40-47.28zm-264.8 14.96v139.2h-15.6c-11.84 0-32-4.16-32-32v-75.2c0-27.6 19.92-32 32-32h15.6zm151.6 233.92v12.16H190.8v-26h50.48v13.84zm137.2-126.48c0 27.6-19.92 32-32 32h-15.2V159.52h15.6c11.84 0 32 4.16 32 32l-.4 74.88z"/></symbol><symbol id="icon-instagram" viewBox="0 0 7630 7630"><path fill="none" d="M0 0h7630v7630H0z"/><g fill="currentColor"><path d="M5270 4596c0 377-306 683-683 683H3043c-377 0-684-306-684-683V3052c0-378 307-684 684-684h1544c377 0 683 306 683 684v1544zm-701-2565H3061c-569 0-1030 461-1030 1030v1508c0 569 461 1030 1030 1030h1508c569 0 1030-461 1030-1030V3061c0-569-461-1030-1030-1030z"/><path d="M3815 4424c-332 0-600-269-600-600 0-332 268-600 600-600 331 0 600 268 600 600 0 331-269 600-600 600zm0-1526c-512 0-926 414-926 926 0 511 414 926 926 926 511 0 926-415 926-926 0-512-415-926-926-926zM4772 2647c-119 0-216 97-216 216s97 215 216 215 215-96 215-215-96-216-215-216z"/></g></symbol><symbol id="icon-linkedin" viewBox="0 0 7630 7630"><path fill="none" d="M0 0h7630v7630H0z"/><g fill="currentColor"><path d="M2084 5618h744V3214h-744zM2453 2899c243 0 440-199 440-444s-197-443-440-443c-244 0-441 198-441 443s197 444 441 444zM4018 4356c0-338 155-539 453-539 274 0 406 193 406 539v1262h740V4096c0-644-365-956-875-956-509 0-724 398-724 398v-324h-714v2404h714V4356z"/></g></symbol><symbol id="icon-locked" viewBox="0 0 54 54"><path d="M43 20.113V14.5C43 6.505 35.822 0 27 0S11 6.505 11 14.5v5.613c-3.401.586-6 3.55-6 7.117v19.542C5 50.757 8.243 54 12.229 54h29.542C45.757 54 49 50.757 49 46.771V27.229c0-3.566-2.599-6.53-6-7.116zM13 14.5C13 7.607 19.28 2 27 2s14 5.607 14 12.5V20H13v-5.5zm34 32.271A5.235 5.235 0 0 1 41.771 52H12.229A5.235 5.235 0 0 1 7 46.771V27.229A5.235 5.235 0 0 1 12.229 22h29.542A5.235 5.235 0 0 1 47 27.229v19.542z"/><path d="M27 28c-2.206 0-4 1.794-4 4v6c0 2.206 1.794 4 4 4s4-1.794 4-4v-6c0-2.206-1.794-4-4-4zm2 10c0 1.103-.897 2-2 2s-2-.897-2-2v-6c0-1.103.897-2 2-2s2 .897 2 2v6z"/></symbol><symbol id="icon-messenger" viewBox="0 0 8379 8379"><path fill="none" d="M0 0h8379v8379H0z"/><path fill="currentColor" d="M2155 4038c0 597 296 1128 758 1475v723l693-383c1228 347 2618-484 2618-1815 0-1047-911-1895-2035-1895-1082 0-2034 817-2034 1895zm1820-530l531 555 997-555-1112 1187-518-556-1010 556 1112-1187z"/></symbol><symbol id="icon-minus-circle" viewBox="0 0 256 256"><path d="M178.666 134.4H77.331a6.4 6.4 0 0 1 0-12.8h101.335a6.4 6.4 0 0 1 0 12.8zM256 128C256 57.42 198.58 0 128 0S0 57.42 0 128s57.42 128 128 128 128-57.42 128-128zm-12.801 0c0 63.521-51.678 115.2-115.199 115.2-63.522 0-115.2-51.679-115.2-115.2C12.8 64.478 64.478 12.8 128 12.8c63.521 0 115.199 51.678 115.199 115.2z"/></symbol><symbol id="icon-minus" viewBox="-33 35 32 32"><path fill="currentColor" d="M-31 49v4h28v-4"/></symbol><symbol id="icon-paypal" viewBox="0 0 11878 11878"><path fill="none" d="M0 0h11878v11878H0z"/><g fill="currentColor"><path d="M7354 4054c-220-251-618-359-1126-359H4751c-104 0-193 76-209 179l-615 3899c-12 77 48 147 126 147h911l229-1453-7 46c16-103 104-178 208-178h433c851 0 1518-346 1712-1346 6-30 15-87 15-87 56-370 0-621-200-848z"/><path d="M7785 5092c-212 984-887 1505-1958 1505h-388l-290 1850h630c91 0 169-66 183-156l7-39 145-918 9-51c15-90 92-156 183-156h115c744 0 1327-303 1498-1177 68-351 35-645-134-858z"/></g></symbol><symbol id="icon-pinterest" viewBox="0 0 10426 10426"><path fill="none" d="M0 0h10426v10426H0z"/><path fill="currentColor" d="M3632 5672c77 32 147 1 169-84 16-59 52-208 69-270 23-85 14-115-49-188-135-160-222-368-222-661 0-852 637-1614 1659-1614 905 0 1402 553 1402 1291 0 972-430 1792-1068 1792-353 0-616-292-532-649 102-427 298-888 298-1196 0-276-148-506-455-506-360 0-650 373-650 872 0 318 108 534 108 534s-369 1562-434 1836c-129 545-19 1213-10 1281 6 40 57 49 80 19 34-43 463-573 609-1103 41-150 237-926 237-926 117 223 459 420 823 420 1083 0 1818-988 1818-2310 0-999-846-1930-2133-1930-1601 0-2409 1148-2409 2105 0 580 220 1095 690 1287z"/></symbol><symbol id="icon-plus-circle" viewBox="0 0 256 256"><path d="M185.066 128c0 3.534-2.866 6-6.4 6H134v44.666c0 3.534-2.467 6.399-6 6.399-3.534 0-6-2.865-6-6.399V134H77.332c-3.535 0-6.4-2.466-6.4-6s2.866-6 6.4-6H122V77.331c0-3.534 2.466-6.4 6-6.4 3.533 0 6 2.866 6 6.4V122h44.666c3.534 0 6.4 2.466 6.4 6zM256 128C256 57.42 198.58 0 128 0S0 57.42 0 128s57.42 128 128 128 128-57.42 128-128zm-12.8 0c0 63.521-51.679 115.2-115.2 115.2-63.522 0-115.2-51.679-115.2-115.2C12.8 64.478 64.478 12.8 128 12.8c63.521 0 115.2 51.678 115.2 115.2z"/></symbol><symbol id="icon-plus" viewBox="-33 35 32 32"><path fill="currentColor" d="M-19 37v12h-12v4h12v12h4V53h12v-4h-12V37"/></symbol><symbol id="icon-rss" viewBox="0 0 7630 7630"><path fill="none" d="M0 0h7630v7630H0z"/><g fill="currentColor"><path d="M2241 2014v539c572 2 1109 226 1513 631 405 405 629 943 631 1516h538c-3-1481-1202-2680-2682-2686zM2605 3973c-201 0-364 163-364 364 0 200 163 363 364 363 200 0 363-163 363-363 0-201-163-364-363-364z"/><path d="M2241 2930v538c676 7 1225 556 1232 1232h538c-7-975-795-1763-1770-1770z"/></g></symbol><symbol id="icon-skype" viewBox="0 0 7630 7630"><path fill="none" d="M0 0h7630v7630H0z"/><path fill="currentColor" d="M4672 4604c-75 106-187 189-332 248-144 59-316 89-512 89-235 0-432-41-585-121-110-59-201-138-270-236-69-99-104-197-104-291 0-59 23-110 68-152s102-63 171-63c56 0 104 16 144 49 38 32 70 78 96 138 29 66 60 121 94 164 32 43 78 78 137 105 59 28 139 42 237 42 136 0 247-29 330-85 82-54 121-120 121-201 0-64-21-114-63-153-45-41-104-73-174-95-75-23-176-48-301-73-170-36-314-78-429-127-117-49-211-117-281-202-70-87-105-196-105-324 0-121 37-231 111-326 73-94 179-168 317-217 136-50 297-75 480-75 146 0 275 17 382 50 108 33 199 77 270 132 72 56 126 115 159 177 34 62 51 124 51 183 0 58-22 111-67 156-44 46-101 69-168 69-60 0-108-14-140-43-31-27-63-68-98-128-41-76-91-137-147-179-55-42-147-62-273-62-117 0-213 23-284 69-68 44-101 94-101 154 0 37 10 68 33 94 23 28 56 52 97 73 43 21 88 39 132 51 45 12 121 31 226 54 133 28 254 60 362 94 109 34 203 76 280 126 78 50 140 115 184 192s67 173 67 284c0 133-39 254-115 360zm797-771c0-891-732-1613-1636-1613-95 0-189 8-280 24-146-91-319-144-504-144-525 0-949 418-949 936 0 172 47 333 130 473-22 104-33 213-33 324 0 891 732 1613 1636 1613 102 0 202-10 300-27 133 71 286 111 448 111 524 0 949-419 949-935 0-150-36-291-99-416 25-112 38-227 38-346z"/></symbol><symbol id="icon-snapchat" viewBox="0 0 10426 10426"><path fill="none" d="M0 0h10426v10426H0z"/><path fill="currentColor" d="M5247 7758c-15 0-30-1-41-1-8 0-18 1-27 1-323 0-539-153-729-288-136-96-265-187-416-212-74-12-148-19-219-19-128 0-230 20-303 35-46 8-85 16-116 16-32 0-70-7-86-62-13-43-22-85-31-126-22-101-38-162-76-168-405-63-644-155-691-266-5-11-8-23-9-35-2-34 22-63 54-68 322-53 608-223 850-505 188-219 280-428 290-451l1-3c47-95 56-176 28-243-52-123-225-178-339-214-29-9-55-18-77-26-101-40-268-125-246-242 16-85 129-144 220-144 25 0 48 5 67 13 102 49 195 73 274 73 99 0 147-38 159-48-4-55-7-109-10-162-23-370-52-829 65-1093 352-789 1098-850 1318-850 37-1 73-1 110-1 220 0 968 61 1320 851 118 263 89 723 66 1093l-1 18c-4 50-7 97-9 144 11 10 55 44 143 48 76-3 163-28 259-73 30-13 63-16 85-16 34 0 68 6 97 18l1 1c82 29 135 86 136 147 1 57-41 141-248 223-21 8-48 17-76 26-115 36-287 91-339 214-29 67-19 148 27 243l2 3c14 34 362 828 1139 956 33 5 56 34 54 68 0 12-3 24-8 35-47 111-287 203-692 265-38 6-54 68-75 168-10 42-19 82-32 125-11 40-37 60-79 60h-6c-28 0-67-5-116-14-86-17-182-33-303-33-72 0-145 7-220 19-150 25-279 116-415 212-191 135-407 288-730 288z"/></symbol><symbol id="icon-sortline" viewBox="0 0 459 459"><path d="M0 382.5h153v-51H0v51zm0-306v51h459v-51H0zM0 255h306v-51H0v51z"/></symbol><symbol id="icon-startup" viewBox="0 0 511.999 511.999"><circle cx="10.06" cy="500.446" r="10.06"/><circle cx="267.005" cy="245.308" r="10.04"/><path d="M398.479 118.032c-8.071-8.072-18.802-12.516-30.216-12.516-11.414 0-22.146 4.446-30.216 12.516-16.661 16.662-16.661 43.772 0 60.433 8.332 8.331 19.272 12.495 30.216 12.495 10.941 0 21.886-4.166 30.216-12.495 16.661-16.662 16.661-43.772 0-60.433zm-14.197 46.234c-8.833 8.832-23.206 8.832-32.037 0-8.833-8.832-8.833-23.204 0-32.037a22.503 22.503 0 0 1 16.018-6.635 22.503 22.503 0 0 1 16.018 6.635c8.833 8.833 8.833 23.205.001 32.037zM125.409 411.45c-4.964-2.472-10.99-.451-13.462 4.512l-11.958 24.015c-5.2 10.441-15.658 17.423-27.296 18.219l-13.908.952c-2.351.157-3.897-1.014-4.612-1.729s-1.889-2.264-1.729-4.613l.952-13.907c.797-11.637 7.779-22.096 18.219-27.296l24.014-11.958c4.964-2.472 6.984-8.499 4.512-13.462-2.471-4.963-8.498-6.984-13.462-4.512l-24.014 11.958c-16.792 8.362-28.02 25.182-29.302 43.898l-.952 13.907a26.021 26.021 0 0 0 7.562 20.183 26.024 26.024 0 0 0 20.183 7.563l13.908-.952c18.716-1.281 35.536-12.508 43.898-29.302l11.958-24.014c2.472-4.964.452-10.99-4.511-13.462z"/><path d="M505.07 8.18a23.246 23.246 0 0 0-17.793-6.639l-9.348.596c-83.819 5.351-162.262 45.81-215.215 111.004L240.71 140.23l-57.583-1.691a9.65 9.65 0 0 0-.294-.004c-45.668 0-88.603 17.784-120.896 50.076L2.959 247.59a10.04 10.04 0 0 0 6.584 17.125l124.844 6.414-5.09 6.267a10.039 10.039 0 0 0-1.026 11.127 233.734 233.734 0 0 0 6.144 10.617l-29.606 35.147a10.045 10.045 0 0 0-1.397 10.763c6.467 13.665 15.05 25.943 25.514 36.493 10.718 10.808 23.251 19.646 37.249 26.271a10.042 10.042 0 0 0 10.62-1.278c6.378-5.174 13.731-11.311 20.843-17.245 5.069-4.23 10.255-8.557 15.102-12.547a232.586 232.586 0 0 0 8.795 5.046 10.026 10.026 0 0 0 4.796 1.221c2.186 0 4.358-.712 6.156-2.108l6.843-5.31 6.442 125.37a10.041 10.041 0 0 0 10.023 9.526c2.615 0 5.183-1.023 7.101-2.942l58.979-58.979c32.293-32.293 50.076-75.227 50.076-120.896v-54.995l23.267-18.055c69.729-54.11 112.196-135.704 116.512-223.862l.239-4.886A23.262 23.262 0 0 0 505.07 8.18zM33.123 245.822l43.012-43.012c28.465-28.465 66.303-44.157 106.553-44.196l42.085 1.236-74.71 91.98-116.94-6.008zm151.651 128.052c-5.241 4.372-10.614 8.856-15.6 12.957-9.644-5.223-18.368-11.74-25.992-19.428-7.384-7.445-13.669-15.922-18.737-25.26l21.676-25.733a232.758 232.758 0 0 0 21.478 24.925l.018.017.006.007.009.008a232.765 232.765 0 0 0 27.641 23.761c-3.462 2.874-7.009 5.834-10.499 8.746zm167.101-46.202c0 40.305-15.695 78.197-44.196 106.698l-43.012 43.012-6.002-116.792 93.209-72.33v39.412zM491.678 29.779c-4.029 82.297-43.673 158.467-108.767 208.98l-157.46 122.189c-13.058-7.63-25.229-16.639-36.368-26.846l53.086-53.086c3.92-3.92 3.92-10.278 0-14.199-3.921-3.921-10.278-3.921-14.199 0l-53.036 53.036c-9.751-10.795-18.387-22.541-25.74-35.104L278.3 125.8c49.432-60.859 122.66-98.629 200.907-103.623l9.348-.596a3.151 3.151 0 0 1 2.423.904c.377.371 1 1.178.94 2.409l-.24 4.885z"/></symbol><symbol id="icon-technicalsupport" viewBox="0 0 480.655 480.655"><path d="M464.255 373.681l-.004-.004-.008.008-101.824-101.824a8 8 0 0 0-11.312 0l-22.656 22.664-28.288-28.288 29.152-29.12a120.496 120.496 0 0 0 111.344-32.144c32.61-32.854 43.565-81.461 28.2-125.128a8.001 8.001 0 0 0-5.768-5.128 8.072 8.072 0 0 0-7.424 2.136l-56.8 56.752-42.4-14.136-14.136-42.4 56.752-56.8a8 8 0 0 0-2.992-13.192c-62.431-22.241-131.071 10.34-153.312 72.77a119.99 119.99 0 0 0-4.008 66.718l-29.12 29.152L107.675 73.669l-3.2-34.488a7.999 7.999 0 0 0-4.656-6.544L37.595 4.397a8 8 0 0 0-8.96 1.6l-22.56 22.56a8 8 0 0 0-1.6 8.96l28.24 62.24a8 8 0 0 0 6.552 4.664l34.488 3.2 102.016 101.976-159.4 159.384c-21.828 21.888-21.828 57.312 0 79.2l11.28 11.28c21.89 21.824 57.31 21.824 79.2 0l159.44-159.352 28.288 28.28-22.664 22.672a8 8 0 0 0 0 11.312l101.824 101.816c21.883 21.841 57.317 21.841 79.2 0l11.312-11.312c21.87-21.868 21.872-57.326.004-79.196zM82.987 94.261a8.002 8.002 0 0 0-4.92-2.312l-32.736-3.008-24-52.96 14.72-14.728 52.96 24 3.016 32.728a8.003 8.003 0 0 0 2.304 4.92l104 104.096-11.256 11.256L82.987 94.261zm12.584 353.92c-15.642 15.608-40.966 15.608-56.608 0l-11.28-11.28c-15.608-15.642-15.608-40.966 0-56.608l225.6-225.6a7.999 7.999 0 0 0 2.072-7.728c-14.712-55.622 18.452-112.639 74.074-127.351a104.177 104.177 0 0 1 48.718-1.097l-50.64 50.704a8 8 0 0 0-1.928 8.192l16.96 50.88a8 8 0 0 0 5.064 5.056l50.88 16.952a8 8 0 0 0 8.176-1.92l50.712-50.64c12.353 56.066-23.084 111.531-79.15 123.884a103.945 103.945 0 0 1-49.306-1.116 7.928 7.928 0 0 0-7.72 2.072l-225.624 225.6zm182.032-159.384l9.088-9.088 2.16-2.16 28.32 28.288-11.28 11.28-28.288-28.32zm175.328 152.768v.032l-11.312 11.28c-15.632 15.594-40.936 15.594-56.568 0l-96.168-96.16 67.88-67.888 96.168 96.168c15.621 15.621 15.621 40.947 0 56.568z"/></symbol><symbol id="icon-tumblr" viewBox="0 0 7630 7630"><path fill="none" d="M0 0h7630v7630H0z"/><path fill="currentColor" d="M2998 4892c0 188 19 332 59 431 39 99 111 193 213 281 102 89 226 157 371 204 145 48 312 72 500 72 166 0 321-17 464-50 143-34 303-92 479-175v-649c-207 136-415 204-624 204-117 0-222-28-313-83-69-40-116-95-142-162-25-68-38-222-38-462V3444h981v-648h-981V1750h-585c-26 213-74 388-144 526-69 138-162 256-277 354s-254 173-415 226v588h452v1448z"/></symbol><symbol id="icon-twitter" viewBox="0 0 9291 9291"><path fill="none" d="M0 0h9291v9291H0z"/><path fill="currentColor" d="M6852 3277c-162 72-336 120-520 142 188-112 331-289 399-501-178 106-373 180-576 220-165-176-400-286-660-286-500 0-906 405-906 906 0 70 8 140 24 206-753-38-1420-398-1867-946-78 134-122 289-122 455 0 314 160 592 403 754-144-5-285-43-411-113v11c0 439 312 805 727 888-77 21-156 32-239 32-58 0-115-6-170-16 115 359 449 621 846 628-311 243-701 388-1125 388-73 0-145-4-216-13 401 257 877 407 1388 407 1665 0 2576-1380 2576-2576 0-39-1-78-3-117 178-128 331-287 452-469z"/></symbol><symbol id="icon-vimeo" viewBox="0 0 11878 11878"><path fill="none" d="M0 0h11878v11878H0z"/><path fill="currentColor" d="M8193 3187c-882-29-1479 469-1792 1494 161-69 318-104 471-104 323 0 466 182 428 545-19 220-162 540-428 961-267 421-467 631-600 631-172 0-329-323-471-972-49-191-134-677-258-1459-114-725-419-1064-914-1016-210 19-524 210-943 571-305 277-615 553-929 829l300 386c285-200 452-300 499-300 219 0 423 343 613 1028 171 628 343 1255 514 1884 256 685 570 1027 941 1027 599 0 1330-562 2196-1687 836-1077 1269-1926 1297-2545 38-830-270-1254-924-1273z"/></symbol><symbol id="icon-whatsapp" viewBox="0 0 8379 8379"><path fill="none" d="M0 0h8379v8379H0z"/><g fill="currentColor"><path d="M6460 4075c-30-1197-1016-2158-2229-2158-1199 0-2176 939-2229 2117-1 32-2 65-2 97 0 419 117 809 320 1143l-402 1188 1235-393c320 175 687 276 1078 276 1232 0 2230-991 2230-2214 0-19 0-38-1-56zM4231 5992c-381 0-735-113-1032-308l-720 229 233-691c-224-307-357-684-357-1091 0-61 3-121 10-181 92-942 894-1680 1866-1680 984 0 1794 757 1869 1716 4 48 6 96 6 145 0 1026-842 1861-1875 1861z"/><path d="M5253 4578c-55-27-324-159-374-177s-87-27-123 28c-37 54-142 176-173 211-33 37-64 41-119 14s-231-83-440-269c-162-143-273-321-304-375s-3-84 24-111c25-25 54-64 83-95 7-9 13-18 19-26 13-20 22-39 35-65 19-36 9-68-4-95-14-27-123-294-169-403-45-108-91-90-124-90-31 0-68-5-104-5-37 0-96 14-146 68s-191 186-191 453c0 63 11 125 28 185 55 191 174 349 195 376 27 35 378 601 934 820 556 216 556 144 656 134 101-8 324-130 369-258 46-126 46-235 32-258-13-21-50-35-104-62z"/></g></symbol><symbol id="icon-youtube-2" viewBox="0 0 7630 7630"><path fill="none" d="M0 0h7630v7630H0z"/><g fill="currentColor"><path d="M4035 3421c58 0 137-30 219-127v112h190V2387h-190v774c-23 29-74 76-111 76-41 0-51-28-51-68v-782h-189v852c0 101 31 182 132 182zM3192 3152c0 180 94 273 278 273 152 0 272-102 272-273v-499c0-160-119-274-272-274-167 0-278 110-278 274v499zm195-483c0-55 26-97 79-97 58 0 83 40 83 97v475c0 55-28 96-79 96-53 0-83-43-83-96v-475zM2740 3406h213v-560l249-821h-217l-137 552-147-552h-215l254 821z"/><g><path d="M4699 3638H2465c-240 0-434 195-434 435v1098c0 240 194 434 434 434h2234c240 0 434-194 434-434V4073c0-240-194-435-434-435zM2763 5280h-203V4155h-211v-191h624v191h-210v1125zm723 0h-181v-107c-33 39-68 69-103 90-98 56-231 55-231-143v-811h180v744c0 39 10 66 48 66 35 0 84-45 106-73v-737h181v971zm695-201c0 120-45 213-165 213-66 0-122-24-172-87v75h-182V3964h182v424c41-50 96-91 161-91 132 0 176 112 176 243v539zm667-262h-345v183c0 73 6 136 78 136 77 0 81-51 81-136v-67h186v73c0 187-81 300-271 300-172 0-260-125-260-300v-436c0-168 111-285 274-285 173 0 257 110 257 285v247z"/><path d="M4583 4455c-67 0-80 47-80 113v99h159v-99c0-65-14-113-79-113zM3881 4461c-12 6-25 16-37 29v605c15 16 29 27 43 34 29 15 72 16 92-10 11-13 16-36 16-67v-501c0-33-7-58-19-74-22-29-63-32-95-16z"/></g></g></symbol><symbol id="icon-youtube" viewBox="0 0 9291 9291"><path fill="none" d="M0 0h9291v9291H0z"/><path fill="currentColor" d="M6850 5434V3857s0-760-760-760H3200s-759 0-759 760v1577s0 760 759 760h2890s760 0 760-760zm-1349-787l-1443 849V3800l1443 847z"/></symbol></svg>